<svg xmlns="http://www.w3.org/2000/svg" width="752.3" height="240" viewBox="0 0 752.3 240"><path d="M292.9 94h-20.1v44.3h7.2v-15.8h12.9c11.9 0 16.1-4.1 16.1-11v-6.6c0-6.8-4.1-10.9-16.1-10.9zm9 17.5c0 4.3-2.3 5.9-9.2 5.9H280V99.1h12.7c6.8 0 9.2 1.5 9.2 5.9v6.5zM353.5 94c-13.5 0-19 5.9-19 13.1v18.2c0 7.2 5.4 13.1 19 13.1 13.5 0 19-5.9 19-13.1V107c0-7.1-5.4-13-19-13zm12.2 31.1c0 5.3-3.9 8.3-12.2 8.3-8.3 0-12.2-3-12.2-8.3v-18c0-5.3 3.9-8.3 12.2-8.3 8.3 0 12.2 3 12.2 8.3v18zM410.9 94h-7.3v44.5h31.7V132h-24.4V94zm63.8 16.8L459.9 94H453l17.7 21.7v22.8h8v-22.8l19-21.7h-6.9l-16.1 16.8zm43.9-10.3h16v37.8h6.9v-37.8h16V94h-39l.1 6.5zm72 17.6h22.8V113h-22.8V99.1h24.6V94h-31.5v44.3h31.6v-5.1h-24.7v-15.1zm76-19c3.5 0 9.3.3 13.8.9l.8-4.9c-4.2-.7-10.4-1.2-14.8-1.2-14.4 0-20.1 4.6-20.1 12.9v19.4c0 8.3 5.7 12.9 20.1 12.9 4.4 0 10.6-.5 14.8-1.2l-.8-4.9c-4.5.6-10.2.9-13.8.9-9.6 0-12.8-2-12.8-8.1v-18.7c0-6 3.1-8 12.8-8zm78.7-5.1v19.1h-23.9V94h-7v44.3h7v-20.1h23.9v20.1h7V94h-7z" fill="#002866"/><path d="M112.5 0C57.2 0 11 39.2.3 91.4h48.2c9.5-26.2 34.6-44.9 64.1-44.9 38.5 0 69.6 32 68.1 70.8-1.3 35-29.6 63.6-64.5 65.4-31.6 1.6-58.8-18.3-68.2-46.4H0c.3 1.7.7 3.3 1 4.9v66.4C1 225.5 15.6 240 33.5 240h9.4v-34.5c19.5 15 44.1 23.8 70.6 23.6 62.8-.5 113.9-52.4 113.6-115.2C226.8 51 175.6 0 112.5 0zm166 156.4h-4.3v34.8h20.5v-3.9h-16.2v-30.9zm22.3 34.8h4.3v-34.8h-4.3v34.8zm16.8-34.8h-4.3v34.8h20.5v-3.9h-16.2v-30.9zm26.6 0h-4.3v34.8h20.5v-3.9h-16.2v-30.9zm45 3.9v-3.9h-22.8v34.8h22.8v-3.9h-18.5v-12h18.1v-3.9h-18.1v-11.2h18.5z" fill="#1d9edf"/></svg>